<svg xmlns="http://www.w3.org/2000/svg" id="prefix__cell-division" width="20.455" height="20.442" viewBox="0 0 20.455 20.442">
    <defs>
        <style>
            .prefix__cls-1{fill:#565b80}
        </style>
    </defs>
    <path id="prefix__Path_212" d="M99.761 92.026a5.551 5.551 0 01-5.173 3.707 4.975 4.975 0 00-1.647.176 4.181 4.181 0 00-2.012 6.671 4.189 4.189 0 007.422-2.846 5.574 5.574 0 013.71-5.408 1.8 1.8 0 10-2.3-2.3zm-5.6 10.283a2.395 2.395 0 112.4-2.4 2.4 2.4 0 01-2.396 2.4zm7.864-9.064h-1.2v-1.2h1.2zm0 0" class="prefix__cls-1" data-name="Path 212" transform="translate(-86.379 -87.258)"/>
    <path id="prefix__Path_213" d="M16.841 10.969A5.386 5.386 0 1013.066.883a5.332 5.332 0 00-3.084 3.229 1.913 1.913 0 01-1.814 1.226 7.79 7.79 0 00-2.6.33A7.9 7.9 0 00.15 11.616a7.8 7.8 0 009.177 9.176 7.834 7.834 0 006.263-7.541c.085-1.333.215-1.929 1.251-2.282zm-3.632 1.911a5.482 5.482 0 01-4.335 5.561A5.39 5.39 0 016.218 8a6.576 6.576 0 012.045-.27 4.259 4.259 0 003.986-2.851 3.031 3.031 0 015.434-.477A3.007 3.007 0 0116.07 8.7a4.282 4.282 0 00-2.86 4.178zm0 0" class="prefix__cls-1" data-name="Path 213" transform="translate(0 -.5)"/>
    <path id="prefix__Path_214" d="M166.108 287.332a1.2 1.2 0 101.2 1.2 1.2 1.2 0 00-1.2-1.2zm0 0" class="prefix__cls-1" data-name="Path 214" transform="translate(-158.322 -275.873)"/>
    <path id="prefix__Path_215" d="M405.515 345.046a2.393 2.393 0 000-3.387 1.1 1.1 0 00-1.123-.244 4.4 4.4 0 00-2.507 2.507 1.1 1.1 0 00.244 1.123 2.393 2.393 0 003.386.001zm0 0" class="prefix__cls-1" data-name="Path 215" transform="translate(-385.778 -327.746)"/>
    <path id="prefix__Path_216" d="M61.692 4.566a1.117 1.117 0 001.123.244 4.4 4.4 0 002.507-2.51 1.1 1.1 0 00-.244-1.123 2.451 2.451 0 00-3.387 0 2.393 2.393 0 000 3.387zm0 0" class="prefix__cls-1" data-name="Path 216" transform="translate(-58.553 -.5)"/>
</svg>
