<svg xmlns="http://www.w3.org/2000/svg" width="11.664" height="10.377" viewBox="0 0 11.664 10.377">
    <path id="prefix__heart" d="M10.739 1.016A3.136 3.136 0 0 0 8.406 0a2.934 2.934 0 0 0-1.833.633 3.749 3.749 0 0 0-.741.774 3.747 3.747 0 0 0-.741-.774A2.934 2.934 0 0 0 3.259 0 3.137 3.137 0 0 0 .926 1.016 3.646 3.646 0 0 0 0 3.505a4.341 4.341 0 0 0 1.157 2.842 24.668 24.668 0 0 0 2.9 2.718c.4.342.856.73 1.328 1.142a.685.685 0 0 0 .9 0c.472-.413.927-.8 1.329-1.143a24.654 24.654 0 0 0 2.9-2.718 4.341 4.341 0 0 0 1.157-2.842 3.645 3.645 0 0 0-.925-2.49zm0 0" style="fill:#565b80"/>
</svg>
