<svg xmlns="http://www.w3.org/2000/svg" width="183.831" height="46.957" viewBox="0 0 183.831 46.957">
  <path id="LOGO" d="M87.073,40.781Q95.01,40.312,99.26,35a20.872,20.872,0,0,0,4.156-11.687H103.1a10.011,10.011,0,0,1-8.031,3.312,11.061,11.061,0,0,1-8.906-3.875A13.045,13.045,0,0,1,83.2,14.063a14.119,14.119,0,0,1,3.469-9.625A13.287,13.287,0,0,1,97.167,0a12.748,12.748,0,0,1,9.719,4.188q4.468,4.78,4.468,13.562,0,13.032-5.937,20.313-6.063,7.375-17.469,7.875ZM92.1,7.969a8.709,8.709,0,0,0-1.562,5.25,9.2,9.2,0,0,0,1.813,5.75,6.643,6.643,0,0,0,5.531,2.657,6.785,6.785,0,0,0,5.781-2.906q0-6.719-2.218-10.188a5.522,5.522,0,0,0-4.812-2.906A5.307,5.307,0,0,0,92.1,7.969ZM173.073,37.26a.824.824,0,0,1-.589-.193q-.2-.192-.015-.682l1.635-4.177-4.8-11.948a.849.849,0,0,1-.073-.355.431.431,0,0,1,.084-.239.407.407,0,0,1,.187-.136.717.717,0,0,1,.24-.041h2.791a.545.545,0,0,1,.36.125.811.811,0,0,1,.234.344l2.854,8.114,2.8-8.146a.568.568,0,0,1,.594-.437h2.989a.587.587,0,0,1,.3.063.311.311,0,0,1,.14.167.426.426,0,0,1,.016.219,1.416,1.416,0,0,1-.063.229l-6.593,16.677a.611.611,0,0,1-.615.417ZM67.042,33.25q.343-8.062.344-13,0-5.031-.219-10.75l-5,2.187-1.625-3L71.51.25h3.875q-.344,12.875-.344,20,0,4.782.344,13ZM4.687,31.865A7.731,7.731,0,0,1,.6,27.781a7.69,7.69,0,0,1,0-5.974,7.636,7.636,0,0,1,4.083-4.046,7.557,7.557,0,0,1,2.99-.594,7.267,7.267,0,0,1,1.286.11,7.713,7.713,0,0,1,1.151.3,7.12,7.12,0,0,1,1.021.443,7.728,7.728,0,0,1,.885.547.418.418,0,0,1,.183.266.364.364,0,0,1-.047.265l-1.74,2.489a.317.317,0,0,1-.271.147.544.544,0,0,1-.344-.136,3.539,3.539,0,0,0-1-.573,3.358,3.358,0,0,0-1.125-.176,3.843,3.843,0,0,0-1.542.307,3.781,3.781,0,0,0-1.224.839A3.843,3.843,0,0,0,4.1,23.24a4.086,4.086,0,0,0-.292,1.552A4.165,4.165,0,0,0,4.1,26.354a3.888,3.888,0,0,0,.807,1.266,3.794,3.794,0,0,0,2.766,1.161,2.968,2.968,0,0,0,1.166-.224,5.274,5.274,0,0,0,.927-.494,1.231,1.231,0,0,1,.22-.131.476.476,0,0,1,.2-.047.338.338,0,0,1,.292.177l1.635,2.406a.426.426,0,0,1,.13.349.6.6,0,0,1-.266.3,8,8,0,0,1-1.865.958,7.01,7.01,0,0,1-2.437.4A7.44,7.44,0,0,1,4.687,31.865Zm153.631.125a6.3,6.3,0,0,1-3.469-3.4,6.776,6.776,0,0,1,1.323-7.318,6.308,6.308,0,0,1,2.037-1.406,6.237,6.237,0,0,1,2.532-.516,4.544,4.544,0,0,1,2.062.453,4.981,4.981,0,0,1,1.573,1.235l.4-1.1a1.458,1.458,0,0,1,.156-.344.337.337,0,0,1,.292-.1h2.125a.4.4,0,0,1,.448.448V31.8a.4.4,0,0,1-.448.447h-2.281a.409.409,0,0,1-.276-.1,1.009,1.009,0,0,1-.208-.256,2.121,2.121,0,0,1-.151-.312c-.042-.108-.077-.2-.1-.276l-.135-.354a5,5,0,0,1-1.563,1.114,4.521,4.521,0,0,1-1.885.4A6.414,6.414,0,0,1,158.318,31.99Zm1.463-9.021a2.928,2.928,0,0,0-.953.645,3.142,3.142,0,0,0-.656,1,3.254,3.254,0,0,0-.245,1.286,3.37,3.37,0,0,0,.229,1.256,3.128,3.128,0,0,0,.626,1,2.836,2.836,0,0,0,.948.662,2.958,2.958,0,0,0,1.187.239,2.855,2.855,0,0,0,1.2-.255,3.111,3.111,0,0,0,1.615-1.687,3.2,3.2,0,0,0,.234-1.214,3.149,3.149,0,0,0-.234-1.208,3.2,3.2,0,0,0-.646-1.005A3.089,3.089,0,0,0,162.12,23a2.941,2.941,0,0,0-2.338-.026Zm-17.1,9.021a5.959,5.959,0,0,1-1.979-1.328,6.284,6.284,0,0,1-1.344-2.067,7,7,0,0,1-.495-2.677,7.183,7.183,0,0,1,.448-2.547,6.318,6.318,0,0,1,1.265-2.083,5.942,5.942,0,0,1,1.964-1.407,6.094,6.094,0,0,1,2.531-.516,4.467,4.467,0,0,1,1.755.328,4.719,4.719,0,0,1,1.391.9V16.219a.4.4,0,0,1,.448-.448h2.927a.4.4,0,0,1,.448.448V31.8a.4.4,0,0,1-.448.447h-2.406a.409.409,0,0,1-.276-.1,1.01,1.01,0,0,1-.208-.256,2.121,2.121,0,0,1-.151-.312c-.041-.108-.076-.2-.1-.276l-.125-.323a4.943,4.943,0,0,1-1.463,1.084,4.048,4.048,0,0,1-1.786.4A6.179,6.179,0,0,1,142.682,31.99Zm1.484-9.015a2.808,2.808,0,0,0-.912.692,3.258,3.258,0,0,0-.593,1.016,3.474,3.474,0,0,0-.214,1.213,3.544,3.544,0,0,0,.214,1.235,3.135,3.135,0,0,0,.593,1.005,2.737,2.737,0,0,0,2.078.916,3.17,3.17,0,0,0,1.224-.239,3.114,3.114,0,0,0,1.011-.667,3.16,3.16,0,0,0,.682-1.005,3.1,3.1,0,0,0,.25-1.245,3.139,3.139,0,0,0-.932-2.26,3.172,3.172,0,0,0-1.011-.672,3.109,3.109,0,0,0-1.224-.245A2.662,2.662,0,0,0,144.167,22.974Zm-16,8.969a6.741,6.741,0,0,1-2.093-1.4,6.511,6.511,0,0,1-1.411-2.083,6.572,6.572,0,0,1,0-5.1,6.585,6.585,0,0,1,3.5-3.479,6.671,6.671,0,0,1,5.131.005,6.605,6.605,0,0,1,3.51,3.485,6.5,6.5,0,0,1-.005,5.089,6.641,6.641,0,0,1-3.51,3.489,6.626,6.626,0,0,1-5.126,0ZM129.547,23a2.863,2.863,0,0,0-.922.688,3.126,3.126,0,0,0-.6,1.005,3.572,3.572,0,0,0,0,2.432,3.252,3.252,0,0,0,.594,1.016,2.788,2.788,0,0,0,.916.692,2.747,2.747,0,0,0,1.193.256,2.658,2.658,0,0,0,1.187-.261,2.914,2.914,0,0,0,.917-.7,3.127,3.127,0,0,0,.593-1.011,3.6,3.6,0,0,0,0-2.417,3.184,3.184,0,0,0-.589-1.011,2.8,2.8,0,0,0-.911-.692,2.712,2.712,0,0,0-1.188-.256A2.74,2.74,0,0,0,129.547,23Zm-79.1,8.995a5.959,5.959,0,0,1-1.979-1.328,6.313,6.313,0,0,1-1.344-2.067,7.012,7.012,0,0,1-.494-2.677,7.183,7.183,0,0,1,.447-2.547,6.349,6.349,0,0,1,1.265-2.083A5.942,5.942,0,0,1,50.3,19.88a6.1,6.1,0,0,1,2.532-.516,4.47,4.47,0,0,1,1.755.328,4.719,4.719,0,0,1,1.391.9V16.219a.4.4,0,0,1,.448-.448h2.927a.4.4,0,0,1,.448.448V31.8a.4.4,0,0,1-.448.447H56.948a.407.407,0,0,1-.275-.1,1.032,1.032,0,0,1-.209-.256,2.319,2.319,0,0,1-.151-.312c-.041-.108-.076-.2-.1-.276l-.125-.323a4.966,4.966,0,0,1-1.463,1.084,4.051,4.051,0,0,1-1.786.4A6.187,6.187,0,0,1,50.442,31.99Zm1.485-9.015a2.8,2.8,0,0,0-.912.692,3.242,3.242,0,0,0-.594,1.016,3.474,3.474,0,0,0-.213,1.213,3.543,3.543,0,0,0,.213,1.235,3.12,3.12,0,0,0,.594,1.005,2.737,2.737,0,0,0,2.078.916,3.174,3.174,0,0,0,1.224-.239,3.171,3.171,0,0,0,1.011-5.177,3.193,3.193,0,0,0-1.011-.672,3.113,3.113,0,0,0-1.224-.245A2.656,2.656,0,0,0,51.927,22.974ZM17.886,31.943a6.734,6.734,0,0,1-2.094-1.4,6.526,6.526,0,0,1-1.411-2.083,6.572,6.572,0,0,1,0-5.1,6.583,6.583,0,0,1,3.505-3.479,6.669,6.669,0,0,1,5.13.005,6.667,6.667,0,0,1,2.1,1.407,6.6,6.6,0,0,1,1.411,2.078,6.508,6.508,0,0,1,0,5.089,6.639,6.639,0,0,1-3.511,3.489,6.623,6.623,0,0,1-5.125,0ZM19.265,23a2.863,2.863,0,0,0-.922.688,3.142,3.142,0,0,0-.6,1.005,3.572,3.572,0,0,0,0,2.432,3.287,3.287,0,0,0,.594,1.016,2.782,2.782,0,0,0,.917.692,2.74,2.74,0,0,0,1.192.256,2.658,2.658,0,0,0,1.187-.261,2.914,2.914,0,0,0,.917-.7,3.145,3.145,0,0,0,.594-1.011,3.615,3.615,0,0,0,0-2.417,3.219,3.219,0,0,0-.589-1.011A2.808,2.808,0,0,0,21.646,23a2.709,2.709,0,0,0-1.188-.256A2.743,2.743,0,0,0,19.265,23Zm98.411,9.255a.387.387,0,0,1-.437-.437V23.042h-1.4a.359.359,0,0,1-.406-.407v-2.7a.369.369,0,0,1,.406-.4h1.4V17.49a.616.616,0,0,1,.094-.355.792.792,0,0,1,.4-.239l2.615-.865a.716.716,0,0,1,.239-.041.507.507,0,0,1,.381.157.65.65,0,0,1,.151.469v2.927h1.677a.354.354,0,0,1,.3.125.428.428,0,0,1,.1.271v2.7a.355.355,0,0,1-.4.407h-1.677v8.771a.391.391,0,0,1-.448.437Zm-76.448,0a.387.387,0,0,1-.437-.437V19.927a.389.389,0,0,1,.14-.328.476.476,0,0,1,.3-.11H44.2a.433.433,0,0,1,.312.12.42.42,0,0,1,.125.318V31.812a.387.387,0,0,1-.437.437Zm-8.635,0a.617.617,0,0,1-.6-.437L27.125,20.261a.64.64,0,0,1-.021-.573.464.464,0,0,1,.427-.2H30.4a.606.606,0,0,1,.594.469l2.437,6.927,2.334-6.959a.6.6,0,0,1,.229-.333.645.645,0,0,1,.365-.1H39.4c.187,0,.3.058.334.172a.8.8,0,0,1-.095.5L34.718,31.812a.628.628,0,0,1-.6.437Zm9.011-14.3a1.092,1.092,0,0,1-.594-.146.628.628,0,0,1-.229-.572V15.323a.97.97,0,0,1,.176-.593.755.755,0,0,1,.646-.239H43.9a.686.686,0,0,1,.579.223.98.98,0,0,1,.171.609v1.9a.7.7,0,0,1-.193.578.885.885,0,0,1-.557.151Z" transform="translate(0.5 0.5)" fill="#565b80" stroke="rgba(0,0,0,0)" stroke-width="1"/>
</svg>
