<svg xmlns="http://www.w3.org/2000/svg" width="227.918" height="56.288" viewBox="0 0 227.918 56.288">
  <path id="Covid19_logo" data-name="Covid19 logo" d="M104.524,49.065q9.55-.564,14.663-6.956,4.324-5.413,5-14.062h-.375q-3.422,3.985-9.662,3.985a13.3,13.3,0,0,1-10.715-4.662,15.69,15.69,0,0,1-3.572-10.452,16.99,16.99,0,0,1,4.173-11.58Q108.735,0,116.668,0a15.338,15.338,0,0,1,11.694,5.038q5.376,5.752,5.376,16.317,0,15.679-7.143,24.439-7.294,8.874-21.017,9.475Zm6.053-39.478A10.471,10.471,0,0,0,108.7,15.9a11.071,11.071,0,0,0,2.181,6.918,7.993,7.993,0,0,0,6.655,3.195,8.163,8.163,0,0,0,6.956-3.5q0-8.082-2.669-12.256a6.645,6.645,0,0,0-5.791-3.5A6.384,6.384,0,0,0,110.578,9.588Zm104.143,36.68a1.03,1.03,0,0,1-.735-.241q-.254-.24-.02-.853l2.045-5.221-6-14.935a1.029,1.029,0,0,1-.091-.443.538.538,0,0,1,.1-.3.511.511,0,0,1,.235-.169.861.861,0,0,1,.3-.052h3.489a.681.681,0,0,1,.449.157,1.008,1.008,0,0,1,.293.429l3.568,10.143,3.5-10.182a.71.71,0,0,1,.742-.547h3.737a.742.742,0,0,1,.378.078.393.393,0,0,1,.175.208.53.53,0,0,1,.02.274,1.694,1.694,0,0,1-.078.286l-8.242,20.847a.764.764,0,0,1-.768.521ZM5.859,39.522a9.653,9.653,0,0,1-5.1-5.1,9.608,9.608,0,0,1,0-7.467,9.547,9.547,0,0,1,5.1-5.059A9.463,9.463,0,0,1,9.6,21.15a9.024,9.024,0,0,1,1.607.137,9.477,9.477,0,0,1,1.439.371,8.975,8.975,0,0,1,1.276.553,9.781,9.781,0,0,1,1.107.683.526.526,0,0,1,.228.332.457.457,0,0,1-.059.332l-2.174,3.112a.4.4,0,0,1-.339.183.672.672,0,0,1-.429-.17A4.4,4.4,0,0,0,11,25.968,4.193,4.193,0,0,0,9.6,25.746a4.785,4.785,0,0,0-1.928.384,4.734,4.734,0,0,0-1.53,1.048A4.829,4.829,0,0,0,5.13,28.741a5.113,5.113,0,0,0-.365,1.94,5.208,5.208,0,0,0,.365,1.953,4.871,4.871,0,0,0,1.009,1.582A4.743,4.743,0,0,0,9.6,35.668a3.722,3.722,0,0,0,1.458-.28,6.549,6.549,0,0,0,1.159-.618,1.553,1.553,0,0,1,.273-.163.614.614,0,0,1,.248-.058.423.423,0,0,1,.365.221l2.045,3.008a.534.534,0,0,1,.163.436.745.745,0,0,1-.332.372,9.971,9.971,0,0,1-2.331,1.2,8.771,8.771,0,0,1-3.046.5A9.3,9.3,0,0,1,5.859,39.522Zm190.418.157a7.877,7.877,0,0,1-4.336-4.244,8.466,8.466,0,0,1,1.654-9.148,7.9,7.9,0,0,1,2.545-1.758,7.806,7.806,0,0,1,3.164-.644,5.693,5.693,0,0,1,2.578.566,6.216,6.216,0,0,1,1.967,1.544l.495-1.381a1.828,1.828,0,0,1,.2-.429.418.418,0,0,1,.365-.131h2.656a.5.5,0,0,1,.56.56V39.444a.5.5,0,0,1-.56.56h-2.851a.509.509,0,0,1-.346-.131,1.254,1.254,0,0,1-.26-.319,2.736,2.736,0,0,1-.189-.391q-.078-.2-.13-.346l-.17-.443a6.231,6.231,0,0,1-1.953,1.393,5.642,5.642,0,0,1-2.356.5A8.015,8.015,0,0,1,196.277,39.678Zm1.83-11.276a3.656,3.656,0,0,0-1.192.807,3.94,3.94,0,0,0-.821,1.244,4.1,4.1,0,0,0-.306,1.608,4.206,4.206,0,0,0,.287,1.569,3.908,3.908,0,0,0,.781,1.25,3.523,3.523,0,0,0,1.184.826,3.686,3.686,0,0,0,1.485.3,3.572,3.572,0,0,0,1.5-.319,3.945,3.945,0,0,0,1.21-.853,3.9,3.9,0,0,0,.807-1.256,4,4,0,0,0,.293-1.517,3.954,3.954,0,0,0-.293-1.511,4,4,0,0,0-.807-1.256,3.9,3.9,0,0,0-1.21-.859,3.686,3.686,0,0,0-2.923-.032ZM176.733,39.678a7.457,7.457,0,0,1-2.474-1.661,7.871,7.871,0,0,1-1.679-2.584,8.759,8.759,0,0,1-.618-3.347,8.979,8.979,0,0,1,.56-3.183,7.912,7.912,0,0,1,1.582-2.6,7.415,7.415,0,0,1,2.454-1.758,7.615,7.615,0,0,1,3.163-.645,5.581,5.581,0,0,1,2.194.41,5.89,5.89,0,0,1,1.739,1.127V19.965a.5.5,0,0,1,.56-.56h3.658a.5.5,0,0,1,.56.56v19.48a.5.5,0,0,1-.56.56h-3.008a.507.507,0,0,1-.345-.131,1.256,1.256,0,0,1-.261-.319,2.638,2.638,0,0,1-.188-.391c-.052-.135-.1-.25-.131-.346l-.157-.4a6.2,6.2,0,0,1-1.829,1.354,5.056,5.056,0,0,1-2.234.5A7.724,7.724,0,0,1,176.733,39.678Zm1.856-11.27a3.509,3.509,0,0,0-1.139.866,4.079,4.079,0,0,0-.742,1.27,4.336,4.336,0,0,0-.266,1.517,4.411,4.411,0,0,0,.266,1.543,3.9,3.9,0,0,0,.742,1.256,3.418,3.418,0,0,0,2.6,1.146,3.953,3.953,0,0,0,1.53-.3,3.9,3.9,0,0,0,1.263-.833,3.936,3.936,0,0,0,.853-1.257,3.881,3.881,0,0,0,.312-1.555,3.924,3.924,0,0,0-1.165-2.826,4,4,0,0,0-1.263-.84,3.877,3.877,0,0,0-1.53-.306A3.327,3.327,0,0,0,178.589,28.409Zm-20,11.211a8.417,8.417,0,0,1-2.617-1.751,8.168,8.168,0,0,1-1.764-2.6,8.22,8.22,0,0,1,0-6.381,8.229,8.229,0,0,1,4.381-4.349,8.333,8.333,0,0,1,6.413.007,8.253,8.253,0,0,1,4.387,4.355,8.133,8.133,0,0,1-.006,6.36A8.29,8.29,0,0,1,165,39.62a8.285,8.285,0,0,1-6.407,0Zm1.725-11.185a3.615,3.615,0,0,0-1.152.859,3.934,3.934,0,0,0-.749,1.256,4.47,4.47,0,0,0,0,3.04,4.059,4.059,0,0,0,.743,1.27,3.474,3.474,0,0,0,1.146.866,3.432,3.432,0,0,0,1.491.319,3.33,3.33,0,0,0,1.484-.326,3.653,3.653,0,0,0,1.146-.872,3.91,3.91,0,0,0,.742-1.264,4.514,4.514,0,0,0,0-3.02,3.987,3.987,0,0,0-.736-1.264,3.509,3.509,0,0,0-1.139-.866,3.386,3.386,0,0,0-1.484-.319A3.432,3.432,0,0,0,160.313,28.435ZM63.053,39.678a7.466,7.466,0,0,1-2.474-1.661A7.871,7.871,0,0,1,58.9,35.434a8.759,8.759,0,0,1-.618-3.347,8.979,8.979,0,0,1,.56-3.183,7.927,7.927,0,0,1,1.582-2.6,7.415,7.415,0,0,1,2.454-1.758,7.616,7.616,0,0,1,3.164-.645,5.579,5.579,0,0,1,2.193.41,5.89,5.89,0,0,1,1.739,1.127V19.965a.5.5,0,0,1,.56-.56h3.658a.5.5,0,0,1,.56.56v19.48a.5.5,0,0,1-.56.56H71.185a.509.509,0,0,1-.345-.131,1.253,1.253,0,0,1-.26-.319,2.737,2.737,0,0,1-.189-.391c-.052-.135-.1-.25-.131-.346l-.156-.4a6.209,6.209,0,0,1-1.83,1.354,5.05,5.05,0,0,1-2.233.5A7.728,7.728,0,0,1,63.053,39.678Zm1.856-11.27a3.509,3.509,0,0,0-1.139.866,4.079,4.079,0,0,0-.743,1.27,4.357,4.357,0,0,0-.266,1.517,4.432,4.432,0,0,0,.266,1.543,3.9,3.9,0,0,0,.743,1.256,3.418,3.418,0,0,0,2.6,1.146,3.953,3.953,0,0,0,1.53-.3,3.9,3.9,0,0,0,1.264-.833,3.948,3.948,0,0,0,.852-1.257,3.866,3.866,0,0,0,.312-1.555,3.907,3.907,0,0,0-.312-1.57,3.954,3.954,0,0,0-.852-1.256A4.008,4.008,0,0,0,67.9,28.4a3.877,3.877,0,0,0-1.53-.306A3.327,3.327,0,0,0,64.909,28.409ZM22.357,39.62a8.407,8.407,0,0,1-2.617-1.751,8.139,8.139,0,0,1-1.764-2.6,8.21,8.21,0,0,1,0-6.381,8.229,8.229,0,0,1,4.381-4.349,8.331,8.331,0,0,1,6.413.007A8.258,8.258,0,0,1,33.158,28.9a8.128,8.128,0,0,1-.007,6.36,8.29,8.29,0,0,1-4.387,4.362,8.283,8.283,0,0,1-6.406,0Zm1.725-11.185a3.609,3.609,0,0,0-1.153.859,3.932,3.932,0,0,0-.748,1.256,4.456,4.456,0,0,0,0,3.04,4.039,4.039,0,0,0,.742,1.27,3.483,3.483,0,0,0,1.146.866,3.432,3.432,0,0,0,1.491.319,3.327,3.327,0,0,0,1.484-.326,3.653,3.653,0,0,0,1.146-.872,3.91,3.91,0,0,0,.743-1.264,4.514,4.514,0,0,0,0-3.02A3.985,3.985,0,0,0,28.2,29.3a3.509,3.509,0,0,0-1.139-.866,3.39,3.39,0,0,0-1.485-.319A3.431,3.431,0,0,0,24.082,28.435ZM145.477,40a.484.484,0,0,1-.547-.547V28.493h-1.745a.449.449,0,0,1-.508-.508V24.613a.462.462,0,0,1,.508-.5h1.745V21.553a.764.764,0,0,1,.117-.443.986.986,0,0,1,.495-.3l3.268-1.081a.861.861,0,0,1,.3-.052.633.633,0,0,1,.475.2.813.813,0,0,1,.189.586v3.659h2.1a.446.446,0,0,1,.372.157.537.537,0,0,1,.123.338v3.372a.443.443,0,0,1-.5.508h-2.1V39.457a.489.489,0,0,1-.56.547Zm-8.425,0a.583.583,0,0,1-.123-.02.557.557,0,0,1-.169-.071.445.445,0,0,1-.144-.15.49.49,0,0,1-.059-.254V36.319a.476.476,0,0,1,.157-.4.537.537,0,0,1,.338-.123h3.463a.521.521,0,0,1,.261.058.409.409,0,0,1,.156.143.547.547,0,0,1,.072.169.67.67,0,0,1,.02.137v3.2a.443.443,0,0,1-.066.254.5.5,0,0,1-.149.15.567.567,0,0,1-.169.071.6.6,0,0,1-.124.02ZM80.424,40q.414-9.7.414-15.641,0-6.053-.264-12.933l-6.016,2.632L72.6,10.452,85.8.3h4.662q-.413,15.49-.413,24.062,0,5.752.413,15.641ZM51.537,40a.484.484,0,0,1-.547-.547V24.6a.487.487,0,0,1,.175-.41.6.6,0,0,1,.372-.137h3.711a.541.541,0,0,1,.391.149.525.525,0,0,1,.157.4V39.457a.484.484,0,0,1-.547.547ZM40.742,40a.772.772,0,0,1-.755-.547l-6.08-14.44a.8.8,0,0,1-.026-.716.581.581,0,0,1,.534-.248h3.58a.756.756,0,0,1,.743.586L41.784,33.3,44.7,24.6a.749.749,0,0,1,.287-.417.8.8,0,0,1,.455-.131h3.8q.352,0,.417.215a.984.984,0,0,1-.117.631L43.4,39.457a.786.786,0,0,1-.755.547ZM52.006,22.127a1.362,1.362,0,0,1-.743-.183.786.786,0,0,1-.286-.715V18.845A1.215,1.215,0,0,1,51.2,18.1a.945.945,0,0,1,.807-.3h2.864a.853.853,0,0,1,.723.28,1.215,1.215,0,0,1,.215.761v2.37a.88.88,0,0,1-.241.723,1.107,1.107,0,0,1-.7.189Z" transform="translate(0.5 0.5)" fill="#565b80" stroke="rgba(0,0,0,0)" stroke-width="1"/>
</svg>
